<?xml version="1.0" encoding="UTF-8"?>
<svg version="1.1" xmlns="http://www.w3.org/2000/svg" width="512" height="512">
<path d="M0 0 C3.06398451 -0.13530844 6.12197126 -0.2342407 9.1875 -0.3125 C10.05181641 -0.35439453 10.91613281 -0.39628906 11.80664062 -0.43945312 C15.91223535 -0.51810437 18.27085389 -0.4899113 21.73828125 1.83984375 C24.93391879 6.30490553 27.469333 11.0083327 30 15.875 C31.60801654 18.93404993 33.22795596 21.97124832 34.93383789 24.97729492 C36.6301278 28.07925714 37.8314273 31.22535047 39.03295898 34.5480957 C42.58116827 43.3683045 46.56889913 50.90969392 55.55168247 54.89965153 C64.8729883 58.55319799 74.66491198 60.73375355 84.42573166 62.85477066 C87.080591 63.44149814 89.72476139 64.06326918 92.36868286 64.69735718 C118.41683923 70.9333015 143.11982801 74.70063058 169.95159912 72.17144775 C174.34263612 71.80392524 178.74533482 71.72857567 183.14868164 71.59838867 C187.10519665 71.47286907 191.04947696 71.2480149 195 71 C187.39480995 65.0216593 179.65679743 59.29357385 171.72949219 53.74951172 C165.38091891 49.2981645 159.14028674 44.70957661 152.90942383 40.09545898 C147.43249592 36.04365296 141.91970082 32.04793841 136.36254883 28.10693359 C134.90630105 27.0741945 133.45301354 26.03728456 132 25 C130.82244141 24.18595703 130.82244141 24.18595703 129.62109375 23.35546875 C129.08613281 22.90816406 128.55117187 22.46085937 128 22 C128 21.34 128 20.68 128 20 C132.30401505 19.54423132 136.60895719 19.09903024 140.91503906 18.66333008 C142.37789903 18.51384428 143.84047408 18.36154104 145.30273438 18.20629883 C147.41206244 17.98286524 149.52222825 17.76978979 151.6328125 17.55859375 C152.90012207 17.42767334 154.16743164 17.29675293 155.47314453 17.16186523 C161.03927384 16.90640741 164.97926647 17.64350723 169.703125 20.59765625 C170.58701904 21.14333252 171.47091309 21.68900879 172.3815918 22.2512207 C173.3281665 22.84894287 174.27474121 23.44666504 175.25 24.0625 C176.25651611 24.68664795 177.26303223 25.3107959 178.30004883 25.95385742 C180.44606766 27.28506618 182.58964253 28.62022159 184.73095703 29.95898438 C190.03366391 33.269711 195.36201599 36.53859028 200.6875 39.8125 C201.75178223 40.46847168 202.81606445 41.12444336 203.91259766 41.80029297 C213.46906553 47.68787414 223.0606476 53.51671808 232.6628418 59.3293457 C233.76668213 59.99796631 234.87052246 60.66658691 236.0078125 61.35546875 C237.06009033 61.98211426 238.11236816 62.60875977 239.1965332 63.25439453 C242 65 242 65 244.01245117 66.56982422 C250.48048417 71.5305627 258.28440087 70.74825113 266.0625 70.75 C268.21939132 70.77176968 270.37605797 70.80042118 272.53282166 70.83233643 C274.48668813 70.8579219 276.44075594 70.86648527 278.39477539 70.87402344 C281.99591678 70.99985732 285.44530101 71.42512223 289 72 C288.84144531 72.71542969 288.68289063 73.43085938 288.51953125 74.16796875 C287.18139918 81.46229768 287.2568979 87.85275054 290.83203125 94.44140625 C292.09027091 96.30082386 292.09027091 96.30082386 295 98 C299.56742046 98.45375733 304.16257664 98.33100916 308.75 98.3125 C310.06210449 98.31048584 311.37420898 98.30847168 312.72607422 98.30639648 C322.9956563 98.20007161 332.23693701 97.25435433 342 94 C344.47947884 93.87853811 346.92974064 93.8122447 349.41015625 93.796875 C350.53101372 93.78648949 350.53101372 93.78648949 351.67451477 93.77589417 C354.13722873 93.75841622 356.59972654 93.75228095 359.0625 93.75 C359.90524475 93.74866058 360.7479895 93.74732117 361.61627197 93.74594116 C373.92056614 93.75015626 386.11970412 94.21348968 398.375 95.3125 C399.05281525 95.37135376 399.73063049 95.43020752 400.4289856 95.49084473 C410.44432612 96.38229206 420.14902834 98.04405068 430 100 C430 106.27 430 112.54 430 119 C422.4474425 121.30551755 415.02851498 123.32016585 407.25 124.6875 C406.578479 124.80649658 405.90695801 124.92549316 405.21508789 125.0480957 C396.48824435 126.51686551 387.82340473 127.14886795 378.97929382 127.15390015 C378.0218481 127.1582824 377.06440238 127.16266465 376.07794315 127.1671797 C372.89660511 127.18044416 369.71529469 127.18671851 366.53393555 127.19287109 C364.24143859 127.2007819 361.94894284 127.20905144 359.65644836 127.21765137 C352.14988374 127.24376093 344.64331385 127.25916914 337.13671875 127.2734375 C334.54247345 127.27880195 331.94822817 127.28417947 329.35398293 127.28956985 C318.55432816 127.31118339 307.75467563 127.33006622 296.95500469 127.34119225 C294.15970035 127.34412116 291.36439605 127.34708294 288.5690918 127.35009766 C287.87447025 127.35084371 287.17984869 127.35158976 286.464178 127.35235842 C275.23363333 127.36498869 264.00324779 127.39818896 252.77277734 127.43989949 C241.20215846 127.48251573 229.63162907 127.50550339 218.06093246 127.51111281 C211.58081176 127.51474805 205.10096134 127.52657406 198.62091637 127.55921555 C192.51484328 127.58953422 186.40920069 127.59552383 180.30306816 127.58383179 C178.07847224 127.58361302 175.85385492 127.59175156 173.62932968 127.60948563 C159.90583394 127.71281772 147.58076482 126.3647621 134.35049856 122.65139258 C131.14484987 121.76301264 127.91925891 120.96299098 124.69060248 120.16305673 C120.75168816 119.18543463 116.82202932 118.17137779 112.890625 117.1640625 C111.14208729 116.7170833 109.39353133 116.27017551 107.6449585 115.82333374 C104.01462434 114.89514353 100.38463765 113.96560922 96.75488281 113.03515625 C93.09265636 112.09652998 89.42989771 111.1600286 85.76660156 110.22558594 C74.57622866 107.37080769 63.39242336 104.49219789 52.21762085 101.57704163 C50.12351914 101.03214061 48.02839377 100.49139486 45.93286133 99.95202637 C42.46621307 99.05488441 39.0057959 98.1373526 35.546875 97.2109375 C34.12136322 96.84677231 34.12136322 96.84677231 32.66705322 96.47525024 C23.76795827 94.03860539 15.48220745 90.07166928 10.23101807 82.2311554 C5.41856056 73.50882968 4.21065755 64.6744033 3.515625 54.86328125 C3.41050475 53.53043254 3.30409442 52.19768503 3.19647217 50.86503601 C2.91956997 47.38889088 2.66168928 43.91158717 2.40753174 40.43371582 C2.19739495 37.60415598 1.97328615 34.77578319 1.74850845 31.94735432 C-0.15175404 8.00253808 -0.15175404 8.00253808 0 0 Z " fill="#000000" transform="translate(31,163)"/>
<path d="M0 0 C1.83252999 -0.00782324 1.83252999 -0.00782324 3.70208079 -0.01580453 C5.07028038 -0.0114796 6.43847939 -0.00696626 7.80667782 -0.002285 C9.25076754 -0.00458747 10.6948561 -0.00776255 12.13894218 -0.01173949 C16.12234683 -0.02012782 20.10565628 -0.01594377 24.08906138 -0.00976706 C28.3806214 -0.00525905 32.67216456 -0.01221872 36.96372128 -0.0177269 C45.38336672 -0.02664549 53.80297661 -0.02468644 62.22262347 -0.01890162 C69.07638856 -0.01438791 75.93014366 -0.01377099 82.7839098 -0.01594925 C83.75889862 -0.01625572 84.73388745 -0.01656218 85.73842139 -0.01687793 C87.71929305 -0.0175174 89.7001647 -0.01816583 91.68103635 -0.01882312 C110.28826778 -0.02453539 128.89547956 -0.01795808 147.50270777 -0.00722238 C163.42646434 0.00168171 179.35019169 0.00018889 195.27394772 -0.00905991 C213.77818674 -0.01980253 232.28240841 -0.02395205 250.78665012 -0.01783538 C252.76733458 -0.01719833 254.74801904 -0.01656959 256.7287035 -0.01594925 C257.70309075 -0.0156407 258.67747801 -0.01533215 259.68139215 -0.01501425 C266.5055025 -0.01329681 273.32960174 -0.01618242 280.15371037 -0.02090836 C288.50274949 -0.02656308 296.85175109 -0.02490691 305.200786 -0.01434687 C309.45090219 -0.00914616 313.70095623 -0.00693524 317.95107174 -0.01364517 C336.4896555 -0.04059171 354.83025331 0.34114311 373.29518795 2.25168228 C373.29518795 3.57168228 373.29518795 4.89168228 373.29518795 6.25168228 C346.01952353 15.99638223 314.22658983 14.56553629 285.63868546 14.52779067 C282.02199358 14.52525938 278.40532458 14.53441345 274.78864193 14.54182816 C267.75663621 14.55439634 260.72466896 14.55639239 253.69265389 14.55402789 C247.97364873 14.55222727 242.25465502 14.55403108 236.53565121 14.55825233 C235.30369824 14.55914512 235.30369824 14.55914512 234.04685733 14.56005594 C232.37736785 14.56126793 230.70787838 14.56248206 229.03838891 14.56369831 C213.48869415 14.5745008 197.93902125 14.57244391 182.38932532 14.56631347 C168.19767699 14.56112812 154.00609695 14.57245527 139.81446213 14.59141169 C125.17183115 14.61081826 110.52923248 14.61904258 95.88658857 14.61528844 C87.69343493 14.61338358 79.50033966 14.61579563 71.30719662 14.63000298 C64.34744401 14.64195245 57.38778592 14.64328037 50.42803192 14.63121281 C46.8857306 14.62535444 43.34360192 14.62414027 39.80131245 14.63621521 C4.95924101 14.74673409 4.95924101 14.74673409 -7.70481205 7.25168228 C-7.82981205 4.87668228 -7.82981205 4.87668228 -7.70481205 2.25168228 C-5.02896852 -0.42416125 -3.74120838 0.00114488 0 0 Z " fill="#000000" transform="translate(85.70481204986572,334.74831771850586)"/>
<path d="M0 0 C3.18742115 -0.05865035 6.37470118 -0.09381259 9.5625 -0.125 C10.45775391 -0.14175781 11.35300781 -0.15851563 12.27539062 -0.17578125 C24.34920068 -0.26423407 31.06924428 4.15977576 39.5625 12.3125 C42 15 42 15 42 17 C32.33491837 21.51923267 19.59081793 21.18598123 9.0625 21.4375 C7.91841675 21.48898193 7.91841675 21.48898193 6.7512207 21.54150391 C4.59765625 21.55859375 4.59765625 21.55859375 1 21 C-1.98348149 17.71699577 -2.39178581 14.8424228 -2.3125 10.5 C-2.30669922 9.12328125 -2.30669922 9.12328125 -2.30078125 7.71875 C-1.98227712 4.83980359 -1.19427782 2.62645959 0 0 Z " fill="#000000" transform="translate(327,235)"/>
<path d="M0 0 C3.125 -0.1875 3.125 -0.1875 6 0 C7.38935736 2.77871471 7.13490628 5.05297778 7.14526367 8.16210938 C7.15164352 9.45685181 7.15802338 10.75159424 7.16459656 12.08557129 C7.166125 13.50496381 7.16723908 14.92435684 7.16796875 16.34375 C7.17118059 17.79341668 7.1745446 19.24308303 7.17805481 20.69274902 C7.18404668 23.7325109 7.1858946 26.77224435 7.18530273 29.81201172 C7.185201 33.71292227 7.19886475 37.61365127 7.21607494 41.51451874 C7.22717519 44.50845177 7.22922257 47.5023406 7.22869301 50.49629211 C7.22987567 51.93484626 7.2343134 53.37340146 7.24202538 54.81193542 C7.25178688 56.82056346 7.24769296 58.82924454 7.24291992 60.83789062 C7.24434494 61.98213501 7.24576996 63.12637939 7.24723816 64.30529785 C7 67 7 67 5 69 C2.5 69.3125 2.5 69.3125 0 69 C-2.33881638 65.49177542 -2.25280607 64.07299679 -2.25878906 59.92382812 C-2.26509338 58.67243042 -2.27139771 57.42103271 -2.27789307 56.13171387 C-2.27431327 54.76489115 -2.27021131 53.39806971 -2.265625 52.03125 C-2.26697228 50.63024834 -2.26891335 49.22924713 -2.27142334 47.82824707 C-2.27437163 44.89277696 -2.27008652 41.95742861 -2.26074219 39.02197266 C-2.24934771 35.25904905 -2.25590877 31.49641075 -2.26788712 27.73349762 C-2.27511373 24.84073741 -2.27281412 21.94804484 -2.26763153 19.05528259 C-2.26629725 17.66780056 -2.26793502 16.28031239 -2.27259064 14.89283752 C-2.27766871 12.95395017 -2.26855675 11.01504128 -2.25878906 9.07617188 C-2.25719788 7.97269409 -2.25560669 6.86921631 -2.25396729 5.7322998 C-2 3 -2 3 0 0 Z " fill="#000000" transform="translate(474,238)"/>
<path d="M0 0 C0.78503906 0.10441406 1.57007813 0.20882813 2.37890625 0.31640625 C-1.81717924 5.98679205 -6.10854419 11.57691883 -10.52294922 17.07910156 C-12.64782817 19.73717906 -14.63726759 22.34186634 -16.46484375 25.21875 C-18.05462547 27.68524957 -19.2912309 29.52740442 -21.62109375 31.31640625 C-25.73055212 32.03763695 -29.49872364 31.86470178 -33.62109375 31.31640625 C-29.42500826 25.64602045 -25.13364331 20.05589367 -20.71923828 14.55371094 C-18.59435933 11.89563344 -16.60491991 9.29094616 -14.77734375 6.4140625 C-10.66667278 0.0364774 -7.51742028 -0.5811012 0 0 Z " fill="#000000" transform="translate(248.62109375,296.68359375)"/>
<path d="M0 0 C4.66811057 -0.69506793 9.12195741 -1.33603398 13.125 1.51171875 C15.25166192 3.90864396 17.12131783 6.40330571 19 9 C20.39821718 10.791546 21.81344778 12.56891194 23.22851562 14.34716797 C24.62714322 16.11136724 26.00863985 17.88769722 27.38671875 19.66796875 C29.14240729 21.93603574 30.95977461 24.12822598 32.83203125 26.30078125 C35 29 35 29 35 31 C31.07925984 31.88728549 27.91067494 32.00810674 24 31 C20.19580241 27.72785802 17.35362949 23.96824785 14.41455078 19.92138672 C12.96904496 17.95795372 11.46549975 16.05677874 9.93359375 14.16015625 C1.71061416 3.9527751 1.71061416 3.9527751 0 0 Z " fill="#000000" transform="translate(308,297)"/>
</svg>
