<?xml version="1.0" encoding="UTF-8"?>
<svg version="1.1" xmlns="http://www.w3.org/2000/svg" width="512" height="512">
<path d="M0 0 C2.75608377 0.00888045 5.51213899 0.00677676 8.26823425 0.0055542 C13.99390155 0.00925608 19.71870137 0.0433791 25.4440918 0.09863281 C31.99561104 0.16163897 38.5461884 0.18261721 45.0979889 0.1796906 C52.18111233 0.17695772 59.2638896 0.20486699 66.34690642 0.24147701 C68.34285379 0.24986491 70.33882363 0.25219835 72.33478737 0.25443268 C111.62483382 0.34667109 144.77647864 10.0579983 176.84277344 33.14453125 C181.91905503 36.73521624 187.08625536 40.19492527 192.23672485 43.677948 C194.14211288 44.9668843 196.04625599 46.2576373 197.94995117 47.54907227 C206.08799813 53.80364937 206.08799813 53.80364937 215.61108398 56.17724609 C217.22568764 56.18768448 217.22568764 56.18768448 218.87290955 56.19833374 C220.04149002 56.19733673 221.2100705 56.19633972 222.4140625 56.1953125 C224.91081147 56.21563932 227.40755621 56.23649068 229.90429688 56.2578125 C233.82238301 56.28019461 237.74030064 56.29679516 241.65844727 56.30273438 C286.99419034 56.41851231 318.11380182 71.07194468 353.32519531 98.38476562 C354.95944602 99.62204827 356.64993943 100.78485545 358.35546875 101.921875 C359.53175501 109.52852614 356.28677763 114.70786931 352.91796875 121.359375 C347.05816998 133.57988048 345.90952093 144.3715587 346.49975586 157.79663086 C346.35546875 159.921875 346.35546875 159.921875 344.35546875 161.921875 C341.78680259 162.05770253 339.31540024 162.07789305 336.75 162.01953125 C335.19336346 162.01546428 333.63671997 162.01358185 332.08007812 162.01367188 C329.62785604 162.00559005 327.17885176 161.98463736 324.72729492 161.92553711 C315.26149732 161.39567257 315.26149732 161.39567257 306.84814453 164.83837891 C305.11176388 167.11934102 303.73152559 169.41201521 302.35546875 171.921875 C290.85246716 183.28018474 277.19344259 187.34969794 261.41455078 187.28540039 C245.26405174 186.96957714 233.40774858 180.42813725 222.1328125 169.1328125 C220.35546875 166.921875 220.35546875 166.921875 218.35546875 161.921875 C195.58546875 161.921875 172.81546875 161.921875 149.35546875 161.921875 C149.35546875 158.621875 149.35546875 155.321875 149.35546875 151.921875 C170.14546875 151.921875 190.93546875 151.921875 212.35546875 151.921875 C210.87046875 145.981875 210.87046875 145.981875 209.35546875 139.921875 C207.66842766 124.85428254 212.02224819 110.83276643 220.98046875 98.796875 C230.07038987 87.93331073 243.2044817 80.42021481 257.35546875 78.921875 C273.09916464 77.80868438 287.60896782 81.78080839 299.66796875 92.234375 C308.86074971 101.08831949 316.65412978 111.95859133 317.50073242 125.19262695 C317.52539909 127.87333639 317.54112372 130.55354362 317.54296875 133.234375 C317.55521484 134.15927734 317.56746094 135.08417969 317.58007812 136.03710938 C317.58201172 136.94396484 317.58394531 137.85082031 317.5859375 138.78515625 C317.59004639 139.60282471 317.59415527 140.42049316 317.59838867 141.26293945 C317.35546875 143.921875 317.35546875 143.921875 315.35546875 150.921875 C325.75046875 151.416875 325.75046875 151.416875 336.35546875 151.921875 C336.19046875 148.498125 336.02546875 145.074375 335.85546875 141.546875 C335.56987251 129.39249112 338.70266776 121.60920187 344.35546875 110.921875 C337.09546875 110.921875 329.83546875 110.921875 322.35546875 110.921875 C322.35546875 107.621875 322.35546875 104.321875 322.35546875 100.921875 C326.64546875 100.591875 330.93546875 100.261875 335.35546875 99.921875 C317.02606648 85.83246377 298.37562732 75.51656171 275.60546875 70.546875 C274.89865967 70.39114014 274.19185059 70.23540527 273.46362305 70.07495117 C262.5848466 67.92187284 251.60354619 67.85480545 240.56640625 68.09765625 C202.125857 68.81063707 202.125857 68.81063707 187.15478516 55.28222656 C181.76382565 50.73663119 175.81047652 46.95279541 169.93490601 43.06744385 C167.74870539 41.62143716 165.57010959 40.16446935 163.3918457 38.70654297 C153.46028847 32.09784731 143.53404675 26.19792531 132.35546875 21.921875 C131.72688965 21.67244141 131.09831055 21.42300781 130.45068359 21.16601562 C66.0233595 -4.00433461 -24.39884082 5.89027084 -87.27272129 30.37719822 C-95.140795 33.43584947 -103.09170231 36.01739751 -111.203125 38.359375 C-112.88143906 38.84481277 -112.88143906 38.84481277 -114.59365845 39.34005737 C-117.75487842 40.24794611 -120.91814201 41.14833906 -124.08203125 42.046875 C-127.73428269 43.08761477 -131.37769913 44.15251905 -135.015625 45.2421875 C-135.78756699 45.45794434 -136.55950897 45.67370117 -137.35484314 45.89599609 C-139.67171968 46.55452467 -139.67171968 46.55452467 -142.64453125 47.921875 C-143.74182077 49.97162265 -143.74182077 49.97162265 -143.64453125 51.921875 C-142.72639648 51.8904541 -141.80826172 51.8590332 -140.86230469 51.82666016 C-137.44784928 51.72425242 -134.03502958 51.64912009 -130.61962891 51.59228516 C-129.14312969 51.56215252 -127.66680893 51.52123621 -126.19091797 51.46923828 C-124.06563346 51.39624871 -121.94271732 51.36239009 -119.81640625 51.3359375 C-117.89973145 51.28880615 -117.89973145 51.28880615 -115.94433594 51.24072266 C-112.64453125 51.921875 -112.64453125 51.921875 -110.34594727 54.65014648 C-107.9996052 59.16203198 -105.86131583 63.69626857 -103.83203125 68.359375 C-103.41244141 69.27525391 -102.99285156 70.19113281 -102.56054688 71.13476562 C-100.23889281 76.4627131 -98.82481551 80.15722806 -100.64453125 85.921875 C-102.10874004 88.98094286 -103.79930866 91.85151504 -105.58203125 94.734375 C-106.03771484 95.49685547 -106.49339844 96.25933594 -106.96289062 97.04492188 C-110.30976214 102.58710589 -110.30976214 102.58710589 -112.64453125 104.921875 C-115.71728516 105.14892578 -115.71728516 105.14892578 -119.62109375 105.1171875 C-120.30634125 105.1143576 -120.99158875 105.11152771 -121.69760132 105.10861206 C-123.88842152 105.09740781 -126.07883441 105.07230359 -128.26953125 105.046875 C-129.75390035 105.03684548 -131.23827585 105.02771958 -132.72265625 105.01953125 C-136.36341386 104.99746794 -140.00393281 104.96293676 -143.64453125 104.921875 C-144.48223621 119.01226071 -145.15000665 131.28290023 -135.58203125 142.484375 C-133.73659022 144.53351897 -131.87783313 146.53529766 -129.91381836 148.47094727 C-128.64453125 149.921875 -128.64453125 149.921875 -128.64453125 151.921875 C-123.03453125 151.921875 -117.42453125 151.921875 -111.64453125 151.921875 C-112.13953125 150.436875 -112.63453125 148.951875 -113.14453125 147.421875 C-117.14694633 132.63199832 -114.56508093 118.29666507 -107.48828125 104.90625 C-99.86505504 92.56696012 -88.68029113 84.05270843 -74.64453125 80.421875 C-60.47564639 77.19149719 -46.15695953 78.39284012 -33.33203125 85.609375 C-20.21533832 94.32478559 -11.15135206 105.80032694 -7.0546875 121.12890625 C-6.46160889 125.16748914 -6.46020372 129.15775643 -6.45703125 133.234375 C-6.44478516 134.05099609 -6.43253906 134.86761719 -6.41992188 135.70898438 C-6.41798828 136.51787109 -6.41605469 137.32675781 -6.4140625 138.16015625 C-6.40995361 138.88243408 -6.40584473 139.60471191 -6.40161133 140.34887695 C-6.74024657 143.93568787 -7.77073337 147.42668349 -8.64453125 150.921875 C60.16046875 151.416875 60.16046875 151.416875 130.35546875 151.921875 C130.35546875 155.221875 130.35546875 158.521875 130.35546875 161.921875 C129.61555191 161.9178108 128.87563507 161.9137466 128.11329651 161.90955925 C110.09306782 161.81402262 92.07348904 161.77382738 74.05300903 161.79490471 C65.33825844 161.80376913 56.62427558 161.79403912 47.90966797 161.74023438 C40.31216604 161.69337424 32.71555575 161.68170879 25.11795521 161.7119571 C21.09623563 161.72674881 17.07625217 161.72415379 13.05471802 161.67937851 C9.26500594 161.63774122 5.47822989 161.64335456 1.68853951 161.68439674 C0.30185139 161.69123566 -1.08504521 161.6811665 -2.47145271 161.65244484 C-10.45559246 161.42804286 -10.45559246 161.42804286 -17.20135498 165.14036942 C-19.20879272 167.64969141 -20.92365118 170.21246006 -22.64453125 172.921875 C-35.99756271 185.23759469 -50.69965044 187.71080336 -68.08056641 187.09667969 C-78.27159912 186.40188066 -86.54059624 181.84398136 -94.64453125 175.921875 C-95.82015625 175.10203125 -95.82015625 175.10203125 -97.01953125 174.265625 C-99.64453125 171.921875 -99.64453125 171.921875 -101.03442383 169.67041016 C-102.72712135 166.98013127 -104.1989524 164.96528725 -106.64453125 162.921875 C-111.24199923 162.0313643 -115.68175518 162.47518847 -120.33203125 162.796875 C-134.24788987 163.07410465 -134.24788987 163.07410465 -138.90234375 158.90234375 C-141.51527667 155.87349672 -143.56646521 152.6083955 -145.39526367 149.05712891 C-146.59653662 146.8370179 -146.59653662 146.8370179 -148.46606445 144.90771484 C-155.24576913 137.17486797 -154.54977231 128.93921998 -154.2824707 119.1875 C-154.20644571 116.40040907 -154.17994995 113.61614265 -154.16210938 110.828125 C-154.13954254 109.05725343 -154.11425182 107.286414 -154.0859375 105.515625 C-154.07430069 104.68236694 -154.06266388 103.84910889 -154.05067444 102.99060059 C-153.88031114 97.15765489 -153.88031114 97.15765489 -151.64453125 94.921875 C-148.67453125 94.921875 -145.70453125 94.921875 -142.64453125 94.921875 C-142.64453125 84.031875 -142.64453125 73.141875 -142.64453125 61.921875 C-145.61453125 61.921875 -148.58453125 61.921875 -151.64453125 61.921875 C-153.64453125 59.921875 -153.64453125 59.921875 -153.87158203 57.85888672 C-153.8611084 57.03146973 -153.85063477 56.20405273 -153.83984375 55.3515625 C-153.83339844 54.45566406 -153.82695312 53.55976563 -153.8203125 52.63671875 C-153.80355469 51.69957031 -153.78679687 50.76242188 -153.76953125 49.796875 C-153.76050781 48.85199219 -153.75148437 47.90710938 -153.7421875 46.93359375 C-153.71857635 44.59608953 -153.68395101 42.25915034 -153.64453125 39.921875 C-147.8526381 37.21941512 -142.08998206 34.96020487 -135.97314453 33.11621094 C-134.74875671 32.73959068 -134.74875671 32.73959068 -133.49963379 32.35536194 C-130.82300485 31.53354248 -128.14399396 30.71980866 -125.46484375 29.90625 C-123.56926592 29.32624667 -121.67383201 28.74577281 -119.77853394 28.16485596 C-114.78953305 26.6372477 -109.79842149 25.11664932 -104.80688477 23.59735107 C-100.80923012 22.379273 -96.81312028 21.15617624 -92.8170948 19.93276596 C-87.95024111 18.44291644 -83.08262088 16.95557921 -78.21484375 15.46875 C-77.3260062 15.19715813 -76.43716866 14.92556625 -75.52139664 14.64574432 C-74.6529298 14.38058266 -73.78446297 14.11542099 -72.88967896 13.84222412 C-72.02479449 13.57797134 -71.15991003 13.31371857 -70.26881695 13.04145813 C-68.51281072 12.50849791 -66.75522631 11.98071132 -64.99614429 11.45799255 C-60.07091724 9.99124442 -55.19477796 8.43710669 -50.33460999 6.76641846 C-33.30378464 1.06916144 -17.87727261 -0.20962088 0 0 Z M-132.64453125 61.921875 C-132.64453125 72.811875 -132.64453125 83.701875 -132.64453125 94.921875 C-120.65935066 96.28435016 -120.65935066 96.28435016 -116.51953125 92.39453125 C-112.92485442 86.28446361 -112.92485442 86.28446361 -111.65625 79.44140625 C-112.40616689 77.06161218 -113.42099127 75.09664271 -114.64453125 72.921875 C-115.54912447 70.90494768 -116.444806 68.88400239 -117.33203125 66.859375 C-118.09515625 65.23 -118.85828125 63.600625 -119.64453125 61.921875 C-123.93453125 61.921875 -128.22453125 61.921875 -132.64453125 61.921875 Z M-93.45703125 104.734375 C-102.07058571 115.23722325 -104.65796275 126.5864034 -103.64453125 139.921875 C-101.64589185 151.56101031 -94.80462064 161.63828343 -85.64453125 168.921875 C-73.87592169 175.96823745 -61.90928131 177.86352049 -48.40234375 175.30859375 C-36.71942825 171.46508387 -27.69984161 163.50798228 -21.64453125 152.921875 C-16.53640843 142.51751152 -15.5897672 130.02366714 -19.26953125 118.984375 C-24.76842688 106.18555172 -33.67318018 97.14850423 -46.64453125 91.921875 C-63.51467539 85.59142798 -81.54443428 92.05322338 -93.45703125 104.734375 Z M231.2578125 104.16015625 C223.12147625 114.16214922 219.17761287 124.96546033 220.35546875 137.921875 C221.98130561 148.94800499 226.99120801 158.59726553 235.12890625 166.2890625 C246.51906591 174.64184625 258.43439952 177.3404834 272.35546875 175.921875 C284.91732729 172.95754224 294.42830891 165.69945615 301.35546875 154.921875 C306.99904658 144.23509996 308.02548247 132.4530294 305.70703125 120.609375 C302.08709989 109.71864132 293.51060294 99.59514771 283.2890625 94.34765625 C264.69107073 86.38360824 245.47294626 88.99205263 231.2578125 104.16015625 Z " fill="#000000" transform="translate(153.64453125,162.078125)"/>
<path d="M0 0 C5.0584205 0.05737246 10.11651124 0.06946392 15.17521381 0.08014297 C21.28895081 0.09569884 27.40240773 0.13912793 33.51599121 0.18347168 C34.65015284 0.18911385 35.78431446 0.19475601 36.95284462 0.20056915 C53.87680564 0.3095563 70.21275752 1.37365787 86.46520996 6.48034668 C87.28787354 6.73453369 88.11053711 6.9887207 88.95812988 7.25061035 C107.39662332 13.14845684 123.45530085 22.37074572 139.15270996 33.54284668 C140.30319824 34.3572522 140.30319824 34.3572522 141.47692871 35.18811035 C145.38442588 38.02671516 148.80750338 40.67586885 151.46520996 44.79284668 C151.34020996 47.54284668 151.34020996 47.54284668 150.46520996 49.79284668 C147.59993247 51.22548542 145.0667051 51.02470675 141.86364746 51.12854004 C141.17705551 51.1508541 140.49046356 51.17316816 139.7830658 51.19615841 C130.34590127 51.48441564 120.90601868 51.63062251 111.46520996 51.73034668 C110.53472839 51.74079388 109.60424683 51.75124107 108.64556885 51.76200485 C76.38762625 52.08267928 45.27017561 49.15044231 13.46520996 43.85534668 C12.47180603 43.69003826 11.4784021 43.52472984 10.45489502 43.35441208 C-3.56896566 41.00832328 -17.59883947 38.62178187 -31.53479004 35.79284668 C-31.20479004 32.49284668 -30.87479004 29.19284668 -30.53479004 25.79284668 C-25.50530215 24.17043123 -21.51313476 25.52968459 -16.53479004 26.79284668 C-16.53479004 21.51284668 -16.53479004 16.23284668 -16.53479004 10.79284668 C-34.51343546 10.81595548 -50.55432612 11.19045464 -67.53479004 17.79284668 C-62.6892155 18.88031556 -57.84491509 19.95704737 -52.97229004 20.91784668 C-52.12537598 21.0854248 -51.27846191 21.25300293 -50.40588379 21.42565918 C-49.78842285 21.54683105 -49.17096191 21.66800293 -48.53479004 21.79284668 C-48.67586751 23.25164777 -48.82281418 24.70988219 -48.97229004 26.16784668 C-49.05350098 26.97995605 -49.13471191 27.79206543 -49.21838379 28.62878418 C-49.53479004 30.79284668 -49.53479004 30.79284668 -50.53479004 32.79284668 C-57.87233812 31.82234934 -65.20438075 30.8157932 -72.53479004 29.79284668 C-73.69945801 29.6323584 -74.86412598 29.47187012 -76.06408691 29.30651855 C-79.59796801 28.81489844 -83.12897349 28.30596886 -86.65979004 27.79284668 C-87.77917969 27.63912598 -88.89856934 27.48540527 -90.05187988 27.32702637 C-91.10069336 27.17137207 -92.14950684 27.01571777 -93.23010254 26.85534668 C-94.15838867 26.72257324 -95.0866748 26.5897998 -96.04309082 26.45300293 C-98.79425596 25.72410321 -100.39173612 24.63422985 -102.53479004 22.79284668 C-102.20479004 20.48284668 -101.87479004 18.17284668 -101.53479004 15.79284668 C-97.54932109 14.3987526 -93.55425508 13.05924807 -89.53161621 11.77624512 C-85.51442417 10.4820855 -81.59371427 9.04293036 -77.66516113 7.50256348 C-52.43837895 -1.71781788 -26.50590877 -0.35878093 0 0 Z M-5.53479004 10.79284668 C-5.53479004 16.73284668 -5.53479004 22.67284668 -5.53479004 28.79284668 C-2.23479004 29.12284668 1.06520996 29.45284668 4.46520996 29.79284668 C4.46520996 23.52284668 4.46520996 17.25284668 4.46520996 10.79284668 C1.16520996 10.79284668 -2.13479004 10.79284668 -5.53479004 10.79284668 Z M15.46520996 10.79284668 C15.46520996 17.72284668 15.46520996 24.65284668 15.46520996 31.79284668 C20.22568743 32.59403815 24.98633441 33.39407677 29.74743652 34.19152832 C31.35691495 34.46142008 32.96629489 34.73189999 34.57556152 35.00305176 C38.56717819 35.6754163 42.55999646 36.33789004 46.55603027 36.98352051 C49.74147142 37.49939972 52.91399436 38.05879806 56.08532715 38.65490723 C71.09431265 41.35269163 86.00943157 41.13215622 101.21520996 40.98034668 C103.87015021 40.96525995 106.52509884 40.95157866 109.18005371 40.93933105 C115.60862551 40.90667127 122.03687711 40.8567936 128.46520996 40.79284668 C95.29160965 14.0558124 56.54739794 10.52256913 15.46520996 10.79284668 Z " fill="#000000" transform="translate(185.5347900390625,176.2071533203125)"/>
<path d="M0 0 C1.49903446 0.22729805 2.99817828 0.4538758 4.49742126 0.67979431 C8.53496615 1.29026435 12.57092123 1.91070057 16.60665107 2.533041 C20.83646857 3.18353959 25.06769854 3.82471833 29.29878235 4.46691895 C37.29634831 5.68223409 45.2926233 6.90583393 53.2884596 8.13247156 C62.39759354 9.52948236 71.5081407 10.9171659 80.61881387 12.30409718 C99.34682385 15.15530209 118.07304192 18.01811983 136.7980957 20.88867188 C136.4680957 24.51867187 136.1380957 28.14867187 135.7980957 31.88867188 C126.28757462 31.34533041 117.00275873 30.31212977 107.59179688 28.83154297 C106.2349732 28.62236333 104.87806742 28.41371575 103.52108765 28.20555115 C100.63048552 27.76117941 97.74042042 27.3135174 94.85072899 26.86326218 C90.27376444 26.15052631 85.69529515 25.44780593 81.11653137 24.74673462 C68.10755693 22.7533903 55.10056705 20.74730736 42.09521484 18.73046875 C34.88847357 17.61295415 27.68049072 16.50382377 20.47108823 15.4036051 C15.92599506 14.7094776 11.38265606 14.00507522 6.84037149 13.29281211 C4.0112801 12.85169743 1.18076019 12.42036498 -1.65024185 11.99170113 C-3.57354717 11.69756867 -5.49507923 11.39191211 -7.41651917 11.08583069 C-15.73205665 9.84121054 -23.45517694 9.0913457 -31.23706055 12.95507812 C-32.0652832 13.35791016 -32.89350586 13.76074219 -33.74682617 14.17578125 C-34.57762695 14.59666016 -35.40842773 15.01753906 -36.2644043 15.45117188 C-37.13000977 15.87591797 -37.99561523 16.30066406 -38.88745117 16.73828125 C-40.99862025 17.77636991 -43.10279151 18.82647408 -45.2019043 19.88867188 C-43.6195235 21.91025679 -42.03604088 23.93096326 -40.4519043 25.95117188 C-39.96616943 26.5715332 -39.48043457 27.19189453 -38.97998047 27.83105469 C-36.27960615 31.27204163 -33.5582829 34.69345237 -30.79956055 38.08789062 C-30.25074219 38.7652124 -29.70192383 39.44253418 -29.13647461 40.14038086 C-28.0656394 41.45958408 -26.99083944 42.77558007 -25.91186523 44.08813477 C-22.2019043 48.66650229 -22.2019043 48.66650229 -22.2019043 50.88867188 C-21.63876904 50.90947311 -21.07563377 50.93027435 -20.49543381 50.95170593 C-3.33072152 51.59800599 13.81120872 52.54025016 30.95639324 53.57256699 C33.86251959 53.74732898 36.7687219 53.92081096 39.67492127 54.09435368 C46.52095396 54.50323108 53.36684291 54.91445412 60.21264648 55.32714844 C67.25651348 55.75173252 74.30063866 56.17183001 81.34489512 56.58989811 C87.43557608 56.95155082 93.52607812 57.31611503 99.61644673 57.68299007 C103.23675909 57.90103223 106.85713044 58.117937 110.47768402 58.3319397 C114.49067541 58.56926866 118.50327681 58.81265776 122.51586914 59.05664062 C123.70743118 59.12628021 124.89899323 59.1959198 126.12666321 59.26766968 C127.21656052 59.33491241 128.30645782 59.40215515 129.42938232 59.47143555 C130.8482757 59.55659676 130.8482757 59.55659676 132.29583359 59.64347839 C134.7980957 59.88867188 134.7980957 59.88867188 138.7980957 60.88867188 C138.7980957 64.51867187 138.7980957 68.14867187 138.7980957 71.88867188 C100.98161228 69.79554789 63.16930122 67.63997201 25.36319351 65.36654282 C22.61929924 65.20169477 19.87537331 65.03738311 17.13143921 64.87319946 C12.77839295 64.61259555 8.42544386 64.35042331 4.07256699 64.08700562 C2.47384126 63.99042353 0.87508979 63.89426633 -0.72369003 63.79858398 C-4.28601059 63.58514198 -7.84777916 63.36668759 -11.40878296 63.13223267 C-13.86620265 62.97443885 -16.32479949 62.83367929 -18.78433228 62.71322632 C-19.85581512 62.65019318 -20.92729797 62.58716003 -22.03125 62.5222168 C-22.95178665 62.47586594 -23.8723233 62.42951508 -24.820755 62.38175964 C-29.55155781 61.40210624 -31.58085145 57.65468143 -34.2019043 53.88867188 C-35.46774157 52.25653196 -36.75628392 50.64377402 -38.04516602 49.02978516 C-39.47024455 47.2406463 -40.87919081 45.43990352 -42.28393555 43.63476562 C-45.22488838 39.85665793 -48.18063182 36.09033225 -51.1394043 32.32617188 C-51.58767578 31.75495605 -52.03594727 31.18374023 -52.49780273 30.59521484 C-54.4575376 28.09932609 -56.42400968 25.62815443 -58.4831543 23.21289062 C-60.2019043 20.88867188 -60.2019043 20.88867188 -60.7644043 17.26367188 C-60.5787793 16.14992187 -60.3931543 15.03617188 -60.2019043 13.88867188 C-54.98510326 10.18243757 -48.84330804 7.77157008 -43.03881836 5.1081543 C-41.73765263 4.50663231 -40.44035431 3.8966684 -39.1472168 3.27807617 C-37.25506541 2.37375331 -35.35169948 1.49811568 -33.4440918 0.62695312 C-31.75582275 -0.16134888 -31.75582275 -0.16134888 -30.03344727 -0.96557617 C-20.27160384 -3.88467463 -9.85960503 -1.53568598 0 0 Z " fill="#000000" transform="translate(218.201904296875,229.111328125)"/>
<path d="M0 0 C6.49704699 4.54118855 11.46076201 10.00995553 13 18 C13.96921013 28.20737762 13.21477999 36.47870372 7 45 C0.7599332 51.6679571 -6.55869705 54.41700326 -15.5 55.375 C-26.02081953 54.24776934 -33.69101299 50.28557944 -40.453125 42.1171875 C-45.73108837 34.89330834 -46.15357116 26.73688322 -45 18 C-42.13717937 9.26941226 -37.74950079 3.17972391 -29.75390625 -1.2421875 C-19.8588193 -5.83350784 -9.46456403 -5.41742722 0 0 Z M-30.60546875 13.76171875 C-34.3471453 18.92879589 -34.9351242 23.75883396 -34 30 C-32.20215595 35.49928767 -28.65659141 38.77236261 -24 42 C-19.2861832 44.30676141 -15.01224409 44.43609241 -10 43 C-5.05293747 40.83228715 -1.04394537 38.01092459 1.37890625 33.08984375 C3.01854499 27.5728203 2.67750981 22.03252943 0.875 16.625 C-2.22539621 12.28444531 -6.04381352 9.08729932 -11 7 C-19.14910618 5.68339271 -25.06682075 7.68402958 -30.60546875 13.76171875 Z " fill="#000000" transform="translate(433,270)"/>
<path d="M0 0 C6.49704699 4.54118855 11.46076201 10.00995553 13 18 C13.96921013 28.20737762 13.21477999 36.47870372 7 45 C0.7599332 51.6679571 -6.55869705 54.41700326 -15.5 55.375 C-26.02081953 54.24776934 -33.69101299 50.28557944 -40.453125 42.1171875 C-45.73108837 34.89330834 -46.15357116 26.73688322 -45 18 C-42.13717937 9.26941226 -37.74950079 3.17972391 -29.75390625 -1.2421875 C-19.8588193 -5.83350784 -9.46456403 -5.41742722 0 0 Z M-30.60546875 13.76171875 C-34.3471453 18.92879589 -34.9351242 23.75883396 -34 30 C-32.20215595 35.49928767 -28.65659141 38.77236261 -24 42 C-19.2861832 44.30676141 -15.01224409 44.43609241 -10 43 C-5.05293747 40.83228715 -1.04394537 38.01092459 1.37890625 33.08984375 C3.01854499 27.5728203 2.67750981 22.03252943 0.875 16.625 C-2.22539621 12.28444531 -6.04381352 9.08729932 -11 7 C-19.14910618 5.68339271 -25.06682075 7.68402958 -30.60546875 13.76171875 Z " fill="#000000" transform="translate(109,270)"/>
</svg>
